<mxfile host="app.diagrams.net" agent="Mozilla/5.0 (Windows NT 10.0; Win64; x64) AppleWebKit/537.36 (KHTML, like Gecko) Chrome/141.0.0.0 Safari/537.36" version="28.2.8">
  <diagram name="Page-1" id="o47UVzdAwMN203MNCIo_">
    <mxGraphModel dx="1058" dy="638" grid="1" gridSize="10" guides="1" tooltips="1" connect="1" arrows="1" fold="1" page="1" pageScale="1" pageWidth="827" pageHeight="1169" math="0" shadow="0">
      <root>
        <mxCell id="0" />
        <mxCell id="1" parent="0" />
        <mxCell id="ZqLtQFEb4S0L8T7UuUa0-1" value="student" style="shape=umlActor;verticalLabelPosition=bottom;verticalAlign=top;html=1;" vertex="1" parent="1">
          <mxGeometry x="250" y="250" width="30" height="90" as="geometry" />
        </mxCell>
        <mxCell id="ZqLtQFEb4S0L8T7UuUa0-2" value="User" style="shape=umlActor;verticalLabelPosition=bottom;verticalAlign=top;html=1;" vertex="1" parent="1">
          <mxGeometry x="150" y="460" width="30" height="90" as="geometry" />
        </mxCell>
        <mxCell id="ZqLtQFEb4S0L8T7UuUa0-5" value="Instructor" style="shape=umlActor;verticalLabelPosition=bottom;verticalAlign=top;html=1;" vertex="1" parent="1">
          <mxGeometry x="260" y="460" width="30" height="90" as="geometry" />
        </mxCell>
        <mxCell id="ZqLtQFEb4S0L8T7UuUa0-6" value="Admin" style="shape=umlActor;verticalLabelPosition=bottom;verticalAlign=top;html=1;" vertex="1" parent="1">
          <mxGeometry x="260" y="670" width="30" height="90" as="geometry" />
        </mxCell>
        <mxCell id="ZqLtQFEb4S0L8T7UuUa0-7" value="" style="endArrow=open;endFill=1;endSize=12;html=1;rounded=0;entryX=0.238;entryY=0.464;entryDx=0;entryDy=0;entryPerimeter=0;" edge="1" parent="1" target="ZqLtQFEb4S0L8T7UuUa0-1">
          <mxGeometry width="160" relative="1" as="geometry">
            <mxPoint x="170" y="510" as="sourcePoint" />
            <mxPoint x="250" y="510" as="targetPoint" />
            <Array as="points">
              <mxPoint x="210" y="510" />
              <mxPoint x="210" y="290" />
            </Array>
          </mxGeometry>
        </mxCell>
        <mxCell id="ZqLtQFEb4S0L8T7UuUa0-8" value="" style="endArrow=open;endFill=1;endSize=12;html=1;rounded=0;entryX=0.491;entryY=0.582;entryDx=0;entryDy=0;entryPerimeter=0;" edge="1" parent="1" target="ZqLtQFEb4S0L8T7UuUa0-5">
          <mxGeometry width="160" relative="1" as="geometry">
            <mxPoint x="180" y="510" as="sourcePoint" />
            <mxPoint x="340" y="510" as="targetPoint" />
          </mxGeometry>
        </mxCell>
        <mxCell id="ZqLtQFEb4S0L8T7UuUa0-9" value="" style="endArrow=open;endFill=1;endSize=12;html=1;rounded=0;entryX=0.491;entryY=0.625;entryDx=0;entryDy=0;entryPerimeter=0;" edge="1" parent="1" target="ZqLtQFEb4S0L8T7UuUa0-6">
          <mxGeometry width="160" relative="1" as="geometry">
            <mxPoint x="180" y="510" as="sourcePoint" />
            <mxPoint x="250" y="510" as="targetPoint" />
            <Array as="points">
              <mxPoint x="210" y="510" />
              <mxPoint x="210" y="726" />
            </Array>
          </mxGeometry>
        </mxCell>
      </root>
    </mxGraphModel>
  </diagram>
</mxfile>
